<svg width="39" height="32" viewBox="0 0 39 32" fill="none" xmlns="http://www.w3.org/2000/svg">
<path d="M37.4985 14.0976L20.6504 0.930576C19.9109 0.352547 18.7957 0.35261 18.0565 0.930513L1.20824 14.0977C0.615852 14.5606 0.420173 15.274 0.709584 15.9149C0.999068 16.5558 1.70389 16.9699 2.50531 16.9699H5.19626V30.1623C5.19626 30.6854 5.69073 31.1095 6.30058 31.1095H15.5355C16.1453 31.1095 16.6398 30.6854 16.6398 30.1623V22.1523H22.0673V30.1624C22.0673 30.6854 22.5618 31.1095 23.1716 31.1095H32.4061C33.0159 31.1095 33.5104 30.6855 33.5104 30.1624V16.9699H36.2018C37.0032 16.9699 37.7081 16.5558 37.9976 15.9149C38.2866 15.2739 38.0909 14.5606 37.4985 14.0976Z" fill="#FF5A3C"/>
<path d="M33.2201 2.3877H25.8037L34.3244 9.03266V3.33478C34.3244 2.81173 33.83 2.3877 33.2201 2.3877Z" fill="#FF5A3C"/>
</svg>
