<svg width="36" height="36" viewBox="0 0 36 36" fill="none" xmlns="http://www.w3.org/2000/svg">
<rect x="0.5" y="0.5" width="35" height="35" rx="3.5" stroke="#FF5A3C"/>
<path d="M13.4835 14.9671C14.3029 14.9671 14.9671 14.3029 14.9671 13.4835C14.9671 12.6642 14.3029 12 13.4835 12C12.6642 12 12 12.6642 12 13.4835C12 14.3029 12.6642 14.9671 13.4835 14.9671Z" fill="#FF5A3C"/>
<path d="M14.7198 15.958H12.2473C12.1108 15.958 12 16.0688 12 16.2053V23.623C12 23.7595 12.1108 23.8703 12.2473 23.8703H14.7198C14.8563 23.8703 14.9671 23.7595 14.9671 23.623V16.2053C14.9671 16.0688 14.8563 15.958 14.7198 15.958Z" fill="#FF5A3C"/>
<path d="M22.088 15.5464C21.0313 15.1844 19.7094 15.5024 18.9167 16.0726C18.8895 15.9662 18.7926 15.8871 18.6774 15.8871H16.2048C16.0683 15.8871 15.9575 15.9979 15.9575 16.1344V23.5521C15.9575 23.6886 16.0683 23.7994 16.2048 23.7994H18.6774C18.8138 23.7994 18.9246 23.6886 18.9246 23.5521V18.2212C19.3242 17.8771 19.839 17.7673 20.2603 17.9463C20.6688 18.1189 20.9027 18.5402 20.9027 19.1015V23.5521C20.9027 23.6886 21.0135 23.7994 21.1499 23.7994H23.6225C23.759 23.7994 23.8698 23.6886 23.8698 23.5521V18.6035C23.8416 16.5715 22.8857 15.8194 22.088 15.5464Z" fill="#FF5A3C"/>
</svg>
