<svg width="36" height="36" viewBox="0 0 36 36" fill="none" xmlns="http://www.w3.org/2000/svg">
<rect x="0.5" y="0.5" width="35" height="35" rx="3.5" stroke="#FF5A3C"/>
<path d="M24.2202 14.2647C24.139 14.1729 24.0081 14.1498 23.9007 14.2064C23.8339 14.2416 23.7083 14.2878 23.5592 14.3334C23.7473 14.0762 23.8985 13.7882 23.9653 13.5293C23.9942 13.4177 23.952 13.3001 23.8601 13.2336C23.7682 13.1677 23.6458 13.1677 23.5539 13.2336C23.4091 13.3375 22.7102 13.6497 22.2683 13.7508C21.2696 12.8511 20.1074 12.7577 18.8992 13.4831C17.9171 14.0729 17.7034 15.2721 17.7451 16.0031C15.4971 15.7805 14.0998 14.5593 13.3132 13.5485C13.2582 13.4776 13.1695 13.4403 13.0861 13.4458C12.9985 13.4524 12.9194 13.5024 12.8745 13.5799C12.5026 14.2257 12.3995 14.9396 12.5774 15.6447C12.6747 16.0295 12.8446 16.3686 13.0418 16.6434C12.9472 16.5956 12.8558 16.5357 12.7698 16.4642C12.6907 16.3972 12.5801 16.3845 12.4866 16.429C12.3936 16.4747 12.3343 16.5714 12.3343 16.6775C12.3343 17.8882 13.0706 18.6962 13.7583 19.1183C13.6472 19.1045 13.5312 19.0792 13.4142 19.0424C13.3138 19.0111 13.2048 19.0424 13.1353 19.1238C13.0658 19.2046 13.0493 19.32 13.0926 19.4184C13.4789 20.2972 14.2109 20.9017 15.1166 21.121C14.3258 21.5986 13.2673 21.8328 12.298 21.7179C12.1724 21.6998 12.0527 21.7817 12.0132 21.9059C11.9736 22.0301 12.0255 22.1664 12.1361 22.2301C13.6066 23.0793 14.936 23.3827 16.0849 23.3827C17.7568 23.3827 19.0472 22.7407 19.8327 22.2038C21.9503 20.7583 23.2701 18.163 23.0863 15.841C23.4256 15.5832 23.9333 15.1072 24.248 14.5955C24.3132 14.4922 24.3014 14.3559 24.2202 14.2647Z" fill="#FF5A3C"/>
</svg>
