<svg width="31" height="31" viewBox="0 0 31 31" fill="none" xmlns="http://www.w3.org/2000/svg">
<rect x="0.950684" y="0.759277" width="30" height="30" rx="15" fill="#FF5A3C" fill-opacity="0.2"/>
<path d="M11.9599 13.6332C12.1224 13.4491 12.1161 13.1682 11.9401 12.9922C11.757 12.8092 11.4602 12.8092 11.2772 12.9922L11.0471 13.2223V11.3383C11.0471 10.8817 11.4186 10.5102 11.8752 10.5102C12.3318 10.5102 12.7033 10.8817 12.7033 11.3383C12.7033 11.5972 12.9132 11.8071 13.1721 11.8071C13.4309 11.8071 13.6408 11.5972 13.6408 11.3383C13.6408 10.3648 12.8488 9.57275 11.8752 9.57275C10.9017 9.57275 10.1096 10.3648 10.1096 11.3383V13.2223L9.87957 12.9922C9.69655 12.8092 9.39974 12.8092 9.21668 12.9922C9.04065 13.1682 9.0344 13.4491 9.19687 13.6332H11.9599Z" fill="#FF5A3C"/>
<path d="M23.4819 14.5708H8.41942C8.16055 14.5708 7.95068 14.7807 7.95068 15.0395C7.95068 15.2984 8.16055 15.5083 8.41942 15.5083H8.59576C8.83857 16.4274 9.08182 17.3465 9.32559 18.2654C9.62137 19.3803 10.3944 20.2371 11.3976 20.6474L10.9642 21.1816C10.8012 21.3827 10.832 21.6778 11.033 21.8409C11.1198 21.9114 11.2242 21.9456 11.328 21.9456C11.4644 21.9456 11.5997 21.8864 11.6923 21.7722L12.4032 20.8958C12.5235 20.9076 12.6453 20.9144 12.7689 20.9144H19.1337C19.2584 20.9144 19.3814 20.9075 19.5029 20.8954L20.2141 21.7722C20.3067 21.8864 20.442 21.9457 20.5784 21.9457C20.6821 21.9457 20.7866 21.9114 20.8734 21.841C21.0744 21.6779 21.1052 21.3827 20.9421 21.1816L20.5079 20.6463C21.51 20.2354 22.282 19.3788 22.5773 18.2644C22.8406 17.2704 23.0813 16.3649 23.3099 15.5083H23.4819C23.7408 15.5083 23.9506 15.2984 23.9506 15.0396C23.9506 14.7807 23.7408 14.5708 23.4819 14.5708Z" fill="#FF5A3C"/>
</svg>
