<svg width="31" height="31" viewBox="0 0 31 31" fill="none" xmlns="http://www.w3.org/2000/svg">
<rect x="0.950684" y="0.759277" width="30" height="30" rx="15" fill="#FF5A3C" fill-opacity="0.2"/>
<path d="M9.61737 14.0923H11.284C11.1814 14.0923 11.0847 14.0449 11.0214 13.9643C10.958 13.8836 10.936 13.7783 10.9607 13.6783L11.1681 12.8496C11.2794 12.4036 11.6787 12.0923 12.1381 12.0923H14.2841C14.8354 12.0923 15.2841 12.5409 15.2841 13.0923V13.7589C15.2841 13.9429 15.1347 14.0923 14.9507 14.0923H16.9507C16.7667 14.0923 16.6174 13.9429 16.6174 13.7589V13.0923C16.6174 12.5409 17.066 12.0923 17.6174 12.0923H19.7634C20.2227 12.0923 20.622 12.4036 20.7334 12.8496L20.9407 13.6783C20.9661 13.7776 20.9434 13.8836 20.8801 13.9643C20.8167 14.0449 20.7201 14.0923 20.6174 14.0923H22.2841C22.4681 14.0923 22.6174 13.9429 22.6174 13.7589V11.7589C22.6174 10.8403 21.8694 10.0923 20.9507 10.0923H10.9507C10.0321 10.0923 9.28406 10.8403 9.28406 11.7589V13.7589C9.28406 13.9429 9.43337 14.0923 9.61737 14.0923Z" fill="#FF5A3C"/>
<path d="M22.284 14.759H9.61734C8.69868 14.759 7.95068 15.507 7.95068 16.4257V21.0923C7.95068 21.2763 8.10003 21.4257 8.28403 21.4257C8.46803 21.4257 8.61737 21.2763 8.61737 21.0923V20.0923H23.284V21.0923C23.284 21.2763 23.4334 21.4257 23.6174 21.4257C23.8014 21.4257 23.9507 21.2763 23.9507 21.0923V16.4257C23.9507 15.507 23.2027 14.759 22.284 14.759ZM23.284 19.4257H8.61734V18.759H23.284L23.284 19.4257Z" fill="#FF5A3C"/>
</svg>
