<svg width="21" height="21" viewBox="0 0 21 21" fill="none" xmlns="http://www.w3.org/2000/svg">
<circle cx="10.9507" cy="10.7593" r="10" fill="#FF5A3C"/>
<g clip-path="url(#clip0_2_362)">
<path d="M10.9508 6.09259C8.37362 6.09259 6.28418 8.18203 6.28418 10.7593C6.28418 13.3365 8.37362 15.4259 10.9508 15.4259C13.5281 15.4259 15.6175 13.3365 15.6175 10.7593C15.6175 8.18203 13.5281 6.09259 10.9508 6.09259ZM12.2913 12.599C12.0877 12.8468 11.8227 13.0139 11.5135 13.0984C11.3791 13.1348 11.3177 13.2059 11.3253 13.3461C11.3311 13.4844 11.3253 13.6207 11.3234 13.759C11.3234 13.8819 11.26 13.9472 11.139 13.951C11.0603 13.9529 10.9816 13.9549 10.9028 13.9549C10.8337 13.9549 10.7646 13.9549 10.6954 13.9529C10.5648 13.951 10.5034 13.8761 10.5034 13.7494C10.5015 13.6495 10.5015 13.5477 10.5015 13.4479C10.4995 13.2251 10.4919 13.2174 10.2787 13.1829C10.006 13.1387 9.73713 13.0772 9.48747 12.9562C9.29159 12.8602 9.27046 12.8122 9.32615 12.6048C9.3684 12.4512 9.41065 12.2975 9.45867 12.1458C9.49323 12.0344 9.52588 11.9845 9.58541 11.9845C9.61998 11.9845 9.66415 12.0018 9.72369 12.0325C10.0002 12.1765 10.2941 12.2572 10.6032 12.2956C10.6551 12.3014 10.707 12.3052 10.7588 12.3052C10.9028 12.3052 11.043 12.2783 11.1794 12.2188C11.5231 12.069 11.5769 11.6715 11.2869 11.4333C11.189 11.3527 11.0757 11.2931 10.9585 11.2413C10.657 11.1088 10.344 11.0089 10.0598 10.838C9.59886 10.5615 9.30695 10.1831 9.34152 9.62236C9.37993 8.98861 9.73905 8.593 10.3209 8.38175C10.561 8.29533 10.5629 8.29725 10.5629 8.0476C10.5629 7.9631 10.561 7.8786 10.5648 7.79218C10.5706 7.60398 10.6013 7.57133 10.7895 7.56557C10.8107 7.56557 10.8337 7.56557 10.8548 7.56557C10.8913 7.56557 10.9278 7.56557 10.9643 7.56557C10.9797 7.56557 10.995 7.56557 11.0085 7.56557C11.3657 7.56557 11.3657 7.58093 11.3676 7.96694C11.3695 8.25116 11.3695 8.25116 11.6518 8.29533C11.8688 8.3299 12.0743 8.39328 12.274 8.48162C12.3835 8.52963 12.4257 8.60644 12.3912 8.72359C12.3412 8.89643 12.2932 9.07119 12.2395 9.24211C12.2049 9.34581 12.1722 9.39382 12.1108 9.39382C12.0762 9.39382 12.034 9.38038 11.9802 9.3535C11.7037 9.21906 11.4137 9.15377 11.1102 9.15377C11.0718 9.15377 11.0315 9.15569 10.9931 9.15761C10.9028 9.16337 10.8145 9.17489 10.73 9.21138C10.4304 9.34197 10.3824 9.67229 10.6378 9.87585C10.7665 9.97956 10.9144 10.0525 11.0661 10.1159C11.3311 10.2254 11.5961 10.331 11.8477 10.4693C12.6389 10.911 12.854 11.9154 12.2913 12.599Z" fill="white"/>
</g>
<defs>
<clipPath id="clip0_2_362">
<rect width="9.33333" height="9.33333" fill="white" transform="translate(6.28418 6.09259)"/>
</clipPath>
</defs>
</svg>
