<svg width="31" height="31" viewBox="0 0 31 31" fill="none" xmlns="http://www.w3.org/2000/svg">
<rect x="0.950684" y="0.759277" width="30" height="30" rx="15" fill="#FF5A3C" fill-opacity="0.2"/>
<path d="M8.75299 7.89732L11.9433 11.0876L10.6249 12.406C10.4415 12.5894 10.4415 12.8867 10.6249 13.0701C10.8083 13.2535 11.1057 13.2535 11.2891 13.0701L12.6075 11.7518L13.9472 13.0914L12.6288 14.4098C12.4454 14.5932 12.4454 14.8905 12.6288 15.074C12.8122 15.2573 13.1096 15.2574 13.293 15.074L14.6114 13.7556L15.951 15.0952L14.6327 16.4136C14.4493 16.597 14.4493 16.8944 14.6327 17.0778C14.8161 17.2612 15.1135 17.2612 15.2969 17.0778L16.6153 15.7594L17.9549 17.0991L16.6366 18.4174C16.4532 18.6008 16.4532 18.8982 16.6366 19.0816C16.82 19.265 17.1173 19.265 17.3008 19.0816L18.6191 17.7632L19.9588 19.1029L18.6405 20.4212C18.457 20.6046 18.457 20.902 18.6405 21.0854C18.8238 21.2688 19.1212 21.2688 19.3046 21.0854L20.623 19.767L23.8132 22.9575C24.1082 23.2525 23.8989 23.7593 23.4811 23.7593H8.42091C8.16154 23.7593 7.95126 23.549 7.95126 23.2896V8.22942C7.95123 7.81222 8.45754 7.60191 8.75299 7.89732ZM10.9883 20.2525C10.9883 20.5119 11.1986 20.7222 11.458 20.7222H15.7161C16.1331 20.7222 16.3439 20.2161 16.0482 19.9204L11.79 15.6622C11.495 15.3672 10.9883 15.5765 10.9883 15.9943V20.2525Z" fill="#FF5A3C"/>
</svg>
