<svg width="10" height="10" viewBox="0 0 10 10" fill="none" xmlns="http://www.w3.org/2000/svg">
<path d="M4.95085 0.0925903C2.37362 0.0925903 0.28418 2.18203 0.28418 4.75926C0.28418 7.33649 2.37362 9.42592 4.95085 9.42592C7.52808 9.42592 9.61751 7.33649 9.61751 4.75926C9.61751 2.18203 7.52808 0.0925903 4.95085 0.0925903ZM6.29131 6.59904C6.08775 6.84677 5.82273 7.01385 5.51353 7.09835C5.3791 7.13484 5.31765 7.2059 5.32533 7.34609C5.33109 7.48436 5.32533 7.62071 5.32341 7.75898C5.32341 7.88189 5.26004 7.94719 5.13905 7.95103C5.06031 7.95295 4.98157 7.95487 4.90284 7.95487C4.8337 7.95487 4.76456 7.95487 4.69543 7.95295C4.56484 7.95103 4.50338 7.87613 4.50338 7.74938C4.50146 7.64952 4.50146 7.54773 4.50146 7.44787C4.49954 7.2251 4.49186 7.21742 4.27869 7.18285C4.00599 7.13868 3.73713 7.07723 3.48747 6.95624C3.29159 6.86022 3.27046 6.81221 3.32615 6.6048C3.3684 6.45116 3.41065 6.29753 3.45867 6.14581C3.49323 6.03443 3.52588 5.9845 3.58541 5.9845C3.61998 5.9845 3.66415 6.00178 3.72369 6.03251C4.00023 6.17654 4.29406 6.2572 4.60325 6.29561C4.6551 6.30137 4.70695 6.30521 4.7588 6.30521C4.90284 6.30521 5.04303 6.27832 5.17938 6.21879C5.52314 6.069 5.57691 5.67147 5.28692 5.43333C5.18898 5.35267 5.07567 5.29314 4.95853 5.24129C4.65702 5.10878 4.34399 5.00891 4.05976 4.838C3.59886 4.56145 3.30695 4.18313 3.34152 3.62236C3.37993 2.98861 3.73905 2.593 4.32094 2.38175C4.561 2.29533 4.56292 2.29725 4.56292 2.0476C4.56292 1.9631 4.561 1.8786 4.56484 1.79218C4.5706 1.60398 4.60133 1.57133 4.78953 1.56557C4.81065 1.56557 4.8337 1.56557 4.85482 1.56557C4.89131 1.56557 4.9278 1.56557 4.96429 1.56557C4.97965 1.56557 4.99502 1.56557 5.00846 1.56557C5.36566 1.56557 5.36566 1.58093 5.36758 1.96694C5.3695 2.25116 5.3695 2.25116 5.65181 2.29533C5.86882 2.3299 6.0743 2.39328 6.27403 2.48162C6.38349 2.52963 6.42574 2.60644 6.39118 2.72359C6.34124 2.89643 6.29323 3.07119 6.23946 3.24211C6.20489 3.34581 6.17225 3.39382 6.11079 3.39382C6.07622 3.39382 6.03397 3.38038 5.9802 3.3535C5.70366 3.21906 5.41367 3.15377 5.11024 3.15377C5.07183 3.15377 5.0315 3.15569 4.9931 3.15761C4.90284 3.16337 4.8145 3.17489 4.73 3.21138C4.43041 3.34197 4.3824 3.67229 4.63781 3.87585C4.76648 3.97956 4.91436 4.05254 5.06607 4.11591C5.33109 4.22537 5.59611 4.331 5.84769 4.46927C6.63891 4.91097 6.854 5.91536 6.29131 6.59904Z" fill="white"/>
</svg>
