<svg width="52" height="53" viewBox="0 0 52 53" fill="none" xmlns="http://www.w3.org/2000/svg">
<path d="M26.1445 4.89282C37.883 4.89282 47.3988 14.5952 47.3988 26.5638C47.3988 27.411 47.3499 28.2473 47.2564 29.0707C46.3692 28.1432 45.34 27.369 44.2092 26.7783V26.5617C44.2092 25.0688 44.037 23.615 43.7077 22.2283H36.5719C36.6782 23.3507 36.7419 24.5033 36.7632 25.6755C35.639 25.8878 34.5723 26.2605 33.5842 26.7762V26.5638C33.5842 25.0667 33.5077 23.6172 33.3632 22.2283H18.9259C18.5521 25.8365 18.6486 29.4793 19.2128 33.0617H28.0039C27.6053 34.1035 27.3534 35.1977 27.2559 36.3117H19.897C21.2825 41.542 23.6923 44.9827 26.1445 44.9827C27.1093 44.9827 28.0698 44.4475 28.9623 43.479C29.7294 44.8137 30.7303 46.1267 31.9352 47.418C30.0928 47.9488 28.1505 48.2327 26.1424 48.2327C14.406 48.2327 4.89453 38.5303 4.89453 26.5638C4.89241 14.5952 14.406 4.89282 26.1445 4.89282ZM16.599 36.3138H10.8148C12.8668 39.6604 15.9154 42.2494 19.5145 43.7021C18.4053 41.9255 17.4894 39.7025 16.8158 37.1697L16.599 36.3138ZM15.7193 22.2283H8.58353L8.57291 22.2652C8.24391 23.6734 8.07844 25.1162 8.07991 26.5638C8.07991 28.8518 8.48791 31.0423 9.23591 33.0638H15.9785C15.668 30.911 15.5146 28.7376 15.5195 26.5617C15.5195 25.0797 15.5875 23.628 15.7214 22.2262L15.7193 22.2283ZM19.5145 9.42332L19.4657 9.44066C15.1167 11.2113 11.6084 14.6292 9.67578 18.9783H16.1528C16.82 15.1823 17.9803 11.876 19.5167 9.42332H19.5145ZM26.1445 8.14282L25.8959 8.15366C23.212 8.40499 20.6132 12.7427 19.4083 18.9783H32.885C31.6823 12.76 29.0962 8.42882 26.4144 8.15582L26.1445 8.14499V8.14282ZM32.7745 9.42116L32.9998 9.80032C34.4235 12.2097 35.5009 15.373 36.1342 18.9805H42.6112C40.7663 14.8293 37.4828 11.5192 33.3908 9.68549L32.7745 9.42332V9.42116Z" fill="#FF5A3C"/>
<path d="M48.457 37.395C48.457 34.8092 47.4496 32.3292 45.6562 30.5007C43.8629 28.6722 41.4307 27.645 38.8945 27.645C36.3584 27.645 33.9261 28.6722 32.1328 30.5007C30.3395 32.3292 29.332 34.8092 29.332 37.395C29.332 41.4315 32.3495 45.6609 38.257 50.1784C38.4409 50.319 38.6646 50.395 38.8945 50.395C39.1244 50.395 39.3481 50.319 39.532 50.1784C45.4395 45.6609 48.457 41.4315 48.457 37.395ZM35.707 37.395C35.707 36.5331 36.0429 35.7064 36.6406 35.0969C37.2384 34.4874 38.0492 34.145 38.8945 34.145C39.7399 34.145 40.5507 34.4874 41.1484 35.0969C41.7462 35.7064 42.082 36.5331 42.082 37.395C42.082 38.257 41.7462 39.0836 41.1484 39.6931C40.5507 40.3026 39.7399 40.645 38.8945 40.645C38.0492 40.645 37.2384 40.3026 36.6406 39.6931C36.0429 39.0836 35.707 38.257 35.707 37.395Z" fill="#FF5A3C"/>
</svg>
