<svg width="24" height="25" viewBox="0 0 24 25" fill="none" xmlns="http://www.w3.org/2000/svg">
<path opacity="0.4" d="M8.20248 13.4252L4.50325 13.7523C3.67308 13.7523 3 13.0727 3 12.2344C3 11.3962 3.67308 10.7165 4.50325 10.7165L8.20248 11.0437C8.85375 11.0437 9.38174 11.5768 9.38174 12.2344C9.38174 12.8931 8.85375 13.4252 8.20248 13.4252Z" fill="#FDFDFD"/>
<path d="M20.6247 13.365C20.5668 13.4234 20.3508 13.6701 20.1479 13.875C18.9643 15.1583 15.8738 17.2567 14.2571 17.8989C14.0116 18.0013 13.3909 18.2194 13.0582 18.2349C12.7408 18.2349 12.4375 18.1611 12.1484 18.0157C11.7873 17.8119 11.4993 17.4902 11.34 17.1113C11.2386 16.8491 11.0793 16.0616 11.0793 16.0472C10.9211 15.1869 10.835 13.788 10.835 12.2415C10.835 10.7698 10.9211 9.42818 11.051 8.55357C11.0651 8.53815 11.2244 7.5611 11.3979 7.22623C11.7153 6.61379 12.336 6.23486 13.0004 6.23486H13.0582C13.4913 6.24918 14.4011 6.62921 14.4011 6.64243C15.9316 7.28462 18.949 9.28168 20.1621 10.609C20.1621 10.609 20.5047 10.9505 20.653 11.1631C20.8843 11.4693 20.9999 11.8482 20.9999 12.2272C20.9999 12.6501 20.8701 13.0434 20.6247 13.365Z" fill="#FDFDFD"/>
</svg>
