<svg width="16" height="13" viewBox="0 0 16 13" fill="none" xmlns="http://www.w3.org/2000/svg">
<path d="M14.0171 3.32812C14.603 2.88867 15.1304 2.36133 15.5405 1.74609C15.0132 1.98047 14.3979 2.15625 13.7827 2.21484C14.4272 1.83398 14.896 1.24805 15.1304 0.515625C14.5444 0.867188 13.8706 1.13086 13.1968 1.27734C12.6108 0.662109 11.8198 0.310547 10.9409 0.310547C9.2417 0.310547 7.86475 1.6875 7.86475 3.38672C7.86475 3.62109 7.89404 3.85547 7.95264 4.08984C5.40381 3.94336 3.11865 2.71289 1.59521 0.867188C1.33154 1.30664 1.18506 1.83398 1.18506 2.41992C1.18506 3.47461 1.7124 4.41211 2.56201 4.96875C2.06396 4.93945 1.56592 4.82227 1.15576 4.58789V4.61719C1.15576 6.11133 2.21045 7.3418 3.6167 7.63477C3.38232 7.69336 3.08936 7.75195 2.82568 7.75195C2.62061 7.75195 2.44482 7.72266 2.23975 7.69336C2.62061 8.92383 3.76318 9.80273 5.11084 9.83203C4.05615 10.6523 2.73779 11.1504 1.30225 11.1504C1.03857 11.1504 0.804199 11.1211 0.569824 11.0918C1.91748 11.9707 3.52881 12.4688 5.28662 12.4688C10.9409 12.4688 14.0171 7.81055 14.0171 3.73828C14.0171 3.5918 14.0171 3.47461 14.0171 3.32812Z" fill="#FF5A3C"/>
</svg>
