<svg width="17" height="12" viewBox="0 0 17 12" fill="none" xmlns="http://www.w3.org/2000/svg">
<path d="M16.5693 2.53711C16.3936 1.83398 15.8369 1.27734 15.1631 1.10156C13.9033 0.75 8.92285 0.75 8.92285 0.75C8.92285 0.75 3.91309 0.75 2.65332 1.10156C1.97949 1.27734 1.42285 1.83398 1.24707 2.53711C0.895508 3.76758 0.895508 6.4043 0.895508 6.4043C0.895508 6.4043 0.895508 9.01172 1.24707 10.2715C1.42285 10.9746 1.97949 11.502 2.65332 11.6777C3.91309 12 8.92285 12 8.92285 12C8.92285 12 13.9033 12 15.1631 11.6777C15.8369 11.502 16.3936 10.9746 16.5693 10.2715C16.9209 9.01172 16.9209 6.4043 16.9209 6.4043C16.9209 6.4043 16.9209 3.76758 16.5693 2.53711ZM7.28223 8.77734V4.03125L11.4424 6.4043L7.28223 8.77734Z" fill="white"/>
</svg>
