<svg width="49" height="35" viewBox="0 0 49 35" fill="none" xmlns="http://www.w3.org/2000/svg">
<path d="M5.09103 12.3967H10.1424C9.83127 12.3967 9.53823 12.2532 9.34634 12.0088C9.15435 11.7643 9.08767 11.445 9.1625 11.1419L9.79093 8.63041C10.1284 7.27865 11.3386 6.33501 12.7308 6.33501H19.2351C20.9061 6.33501 22.2659 7.69482 22.2659 9.36586V11.3864C22.2659 11.9441 21.8133 12.3967 21.2556 12.3967H27.3173C26.7596 12.3967 26.307 11.9441 26.307 11.3864V9.36586C26.307 7.69482 27.6668 6.33501 29.3378 6.33501H35.842C37.2342 6.33501 38.4445 7.27865 38.7819 8.63041L39.4104 11.1419C39.4872 11.443 39.4184 11.7643 39.2265 12.0088C39.0345 12.2532 38.7416 12.3967 38.4305 12.3967H43.4818C44.0395 12.3967 44.4922 11.9441 44.4922 11.3864V5.3247C44.4922 2.54039 42.2251 0.273315 39.4408 0.273315H9.13219C6.34788 0.273315 4.08081 2.54039 4.08081 5.3247V11.3864C4.08081 11.9441 4.53335 12.3967 5.09103 12.3967Z" fill="#FF5A3C"/>
<path d="M43.4818 14.4175H5.09093C2.30663 14.4175 0.0395508 16.6846 0.0395508 19.4689V33.6128C0.0395508 34.1705 0.492189 34.6232 1.04987 34.6232C1.60754 34.6232 2.06018 34.1705 2.06018 33.6128V30.582H46.5126V33.6128C46.5126 34.1705 46.9652 34.6232 47.5229 34.6232C48.0806 34.6232 48.5332 34.1705 48.5332 33.6128V19.4689C48.5331 16.6846 46.2661 14.4175 43.4818 14.4175ZM46.5126 28.5615H2.06009V26.5409H46.5125L46.5126 28.5615Z" fill="#FF5A3C"/>
</svg>
