<svg width="45" height="47" viewBox="0 0 45 47" fill="none" xmlns="http://www.w3.org/2000/svg">
<path d="M22.1445 0.892822C33.883 0.892822 43.3988 10.5952 43.3988 22.5638C43.3988 23.411 43.3499 24.2473 43.2564 25.0707C42.3692 24.1432 41.34 23.369 40.2092 22.7783V22.5617C40.2092 21.0688 40.037 19.615 39.7077 18.2283H32.5719C32.6782 19.3507 32.7419 20.5033 32.7632 21.6755C31.639 21.8878 30.5723 22.2605 29.5842 22.7762V22.5638C29.5842 21.0667 29.5077 19.6172 29.3632 18.2283H14.9259C14.5521 21.8365 14.6486 25.4793 15.2128 29.0617H24.0039C23.6053 30.1035 23.3534 31.1977 23.2559 32.3117H15.897C17.2825 37.542 19.6923 40.9827 22.1445 40.9827C23.1093 40.9827 24.0698 40.4475 24.9623 39.479C25.7294 40.8137 26.7303 42.1267 27.9352 43.418C26.0928 43.9488 24.1505 44.2327 22.1424 44.2327C10.406 44.2327 0.894532 34.5303 0.894532 22.5638C0.892407 10.5952 10.406 0.892822 22.1445 0.892822ZM12.599 32.3138H6.81478C8.86681 35.6604 11.9154 38.2494 15.5145 39.7021C14.4053 37.9255 13.4894 35.7025 12.8158 33.1697L12.599 32.3138ZM11.7193 18.2283H4.58353L4.57291 18.2652C4.24391 19.6734 4.07844 21.1162 4.07991 22.5638C4.07991 24.8518 4.48791 27.0423 5.23591 29.0638H11.9785C11.668 26.911 11.5146 24.7376 11.5195 22.5617C11.5195 21.0797 11.5875 19.628 11.7214 18.2262L11.7193 18.2283ZM15.5145 5.42332L15.4657 5.44066C11.1167 7.2113 7.6084 10.6292 5.67578 14.9783H12.1528C12.82 11.1823 13.9803 7.87599 15.5167 5.42332H15.5145ZM22.1445 4.14282L21.8959 4.15366C19.212 4.40499 16.6132 8.74265 15.4083 14.9783H28.885C27.6823 8.75999 25.0962 4.42882 22.4144 4.15582L22.1445 4.14499V4.14282ZM28.7745 5.42116L28.9998 5.80032C30.4235 8.20965 31.5009 11.373 32.1342 14.9805H38.6112C36.7663 10.8293 33.4828 7.5192 29.3908 5.68549L28.7745 5.42332V5.42116Z" fill="#FF5A3C"/>
<path d="M44.457 33.395C44.457 30.8092 43.4496 28.3292 41.6562 26.5007C39.8629 24.6722 37.4307 23.645 34.8945 23.645C32.3584 23.645 29.9261 24.6722 28.1328 26.5007C26.3395 28.3292 25.332 30.8092 25.332 33.395C25.332 37.4315 28.3495 41.6609 34.257 46.1784C34.4409 46.319 34.6646 46.395 34.8945 46.395C35.1244 46.395 35.3481 46.319 35.532 46.1784C41.4395 41.6609 44.457 37.4315 44.457 33.395ZM31.707 33.395C31.707 32.5331 32.0429 31.7064 32.6406 31.0969C33.2384 30.4874 34.0492 30.145 34.8945 30.145C35.7399 30.145 36.5507 30.4874 37.1484 31.0969C37.7462 31.7064 38.082 32.5331 38.082 33.395C38.082 34.257 37.7462 35.0836 37.1484 35.6931C36.5507 36.3026 35.7399 36.645 34.8945 36.645C34.0492 36.645 33.2384 36.3026 32.6406 35.6931C32.0429 35.0836 31.707 34.257 31.707 33.395Z" fill="#FF5A3C"/>
</svg>
