<svg width="52" height="52" viewBox="0 0 52 52" fill="none" xmlns="http://www.w3.org/2000/svg">
<path d="M48.4002 25.3219L27.1502 4.07187C26.8847 3.80801 26.5257 3.65991 26.1514 3.65991C25.7771 3.65991 25.4181 3.80801 25.1527 4.07187L3.90266 25.3219C3.67057 25.5929 3.5493 25.9415 3.56307 26.298C3.57684 26.6546 3.72464 26.9928 3.97694 27.2451C4.22925 27.4974 4.56746 27.6452 4.924 27.659C5.28054 27.6727 5.62915 27.5515 5.90016 27.3194L26.1443 7.0752L46.3885 27.3335C46.6595 27.5656 47.0081 27.6869 47.3647 27.6731C47.7212 27.6594 48.0594 27.5116 48.3117 27.2592C48.564 27.0069 48.7118 26.6687 48.7256 26.3122C48.7394 25.9557 48.6181 25.607 48.386 25.336L48.4002 25.3219Z" fill="#FF5A3C"/>
<path d="M40.3112 46.1609H33.2279V31.9942H19.0612V46.1609H11.9779V26.3275L9.14453 29.1609V46.1609C9.14453 46.9123 9.44304 47.633 9.9744 48.1644C10.5057 48.6957 11.2264 48.9942 11.9779 48.9942H21.8945V34.8275H30.3945V48.9942H40.3112C41.0626 48.9942 41.7833 48.6957 42.3147 48.1644C42.846 47.633 43.1445 46.9123 43.1445 46.1609V28.8209L40.3112 25.9875V46.1609Z" fill="#FF5A3C"/>
</svg>
