<svg width="157" height="157" viewBox="0 0 157 157" fill="none" xmlns="http://www.w3.org/2000/svg">
<g filter="url(#filter0_d_2_586)">
<path fill-rule="evenodd" clip-rule="evenodd" d="M77.3244 17.4316C100.963 17.4316 123.483 33.0339 123.483 56.7985C123.483 83.6201 104.004 107.432 77.3244 107.432C51.2476 107.432 33.4834 83.0138 33.4834 56.7985C33.4834 33.7204 54.3681 17.4316 77.3244 17.4316Z" fill="#F5DFDC"/>
</g>
<g clip-path="url(#clip0_2_586)">
<path d="M77.5829 76.501H72.8418H71.3106C67.283 76.501 64.0051 76.2614 64.0051 72.2817V62.2454H61.6859C60.8947 62.2454 60.184 61.7708 59.8815 61.0468C59.5798 60.3187 59.7481 59.4837 60.3043 58.9273L75.7229 43.5711C76.4597 42.8366 77.4412 42.4316 78.4829 42.4316C79.5253 42.4316 80.5068 42.8366 81.2436 43.5711C83.7954 46.1126 85.7092 48.0187 86.9851 49.2895C87.0777 49.3817 87.334 49.637 87.389 49.6917C87.4257 49.7283 87.444 49.4765 87.444 48.9366C87.5392 47.5946 88.6475 46.5353 90.0202 46.5353H90.0356C91.4684 46.5353 92.628 47.6902 92.628 49.1164V54.4786C92.628 54.6212 92.6085 54.7451 92.5866 54.8714L96.6622 58.9273C97.2208 59.4837 97.3867 60.3187 97.0842 61.0468C96.7825 61.7708 96.071 62.2454 95.2806 62.2454H92.628V63.5285C95.4041 65.3765 97.2334 68.5342 97.2334 72.1191C97.2334 77.8146 92.6163 82.4316 86.9209 82.4316C82.7922 82.4316 79.2302 80.0054 77.5829 76.501ZM86.9209 81.4941C92.0986 81.4941 96.2959 77.2968 96.2959 72.1191C96.2959 66.9415 92.0986 62.7441 86.9209 62.7441C81.7432 62.7441 77.5459 66.9415 77.5459 72.1191C77.5459 77.2968 81.7432 81.4941 86.9209 81.4941ZM90.7981 73.8396C90.7981 74.5294 90.5508 75.1257 90.0563 75.6285C89.5617 76.1314 88.8449 76.4534 87.9058 76.5947V77.2305C87.9058 77.6436 87.5709 77.9785 87.1578 77.9785C86.7447 77.9785 86.4097 77.6436 86.4097 77.2305V76.6446C85.7864 76.603 85.1963 76.4971 84.6395 76.3267C84.293 76.2207 83.9835 76.0994 83.7111 75.9628C83.4486 75.8312 83.336 75.5166 83.4554 75.2484C83.4594 75.2394 83.4632 75.2309 83.4668 75.2227L83.8723 74.3122C83.968 74.0972 84.2198 74.0005 84.4349 74.0962C84.4445 74.1005 84.4539 74.1051 84.4632 74.1101C84.4848 74.1217 84.5051 74.1323 84.5239 74.1418C84.7994 74.2812 85.0998 74.4007 85.4249 74.5003C85.9402 74.6582 86.4472 74.7372 86.9458 74.7372C87.8933 74.7372 88.367 74.5003 88.367 74.0265C88.367 73.7772 88.232 73.5923 87.9618 73.4718C87.6917 73.3513 87.2575 73.2245 86.659 73.0915C86.0025 72.9503 85.454 72.7986 85.0135 72.6365C84.573 72.4744 84.1948 72.2147 83.879 71.8573C83.5631 71.5 83.4053 71.0179 83.4053 70.4112C83.4053 69.6964 83.6629 69.0835 84.1782 68.5723C84.6935 68.0612 85.4373 67.7475 86.4097 67.6311V67.0078C86.4097 66.5947 86.7447 66.2598 87.1578 66.2598C87.5709 66.2598 87.9058 66.5947 87.9058 67.0078V67.6062C88.3795 67.6477 88.8346 67.7308 89.2709 67.8555C89.5784 67.9434 89.8622 68.0498 90.1223 68.1748C90.144 68.1853 90.1686 68.1976 90.196 68.2117C90.3331 68.2823 90.3932 68.4463 90.3341 68.5887L89.7681 69.9524C89.7213 70.0653 89.5919 70.1188 89.479 70.0719C89.474 70.0699 89.4691 70.0676 89.4643 70.0652C89.4228 70.0443 89.3875 70.027 89.3583 70.0131C88.6391 69.6718 87.9388 69.5011 87.2575 69.5011C86.7671 69.5011 86.4097 69.5738 86.1853 69.7193C85.9609 69.8647 85.8487 70.0538 85.8487 70.2865C85.8487 70.5192 85.9817 70.6938 86.2477 70.8101C86.5136 70.9265 86.9417 71.047 87.5318 71.1717C88.1967 71.313 88.7473 71.4646 89.1836 71.6267C89.62 71.7888 89.9981 72.0464 90.3181 72.3996C90.6381 72.7529 90.7981 73.2328 90.7981 73.8396Z" fill="#FF5A3C"/>
</g>
<defs>
<filter id="filter0_d_2_586" x="0.483398" y="0.431641" width="156" height="156" filterUnits="userSpaceOnUse" color-interpolation-filters="sRGB">
<feFlood flood-opacity="0" result="BackgroundImageFix"/>
<feColorMatrix in="SourceAlpha" type="matrix" values="0 0 0 0 0 0 0 0 0 0 0 0 0 0 0 0 0 0 127 0" result="hardAlpha"/>
<feMorphology radius="12" operator="erode" in="SourceAlpha" result="effect1_dropShadow_2_586"/>
<feOffset dy="16"/>
<feGaussianBlur stdDeviation="22.5"/>
<feColorMatrix type="matrix" values="0 0 0 0 0.235294 0 0 0 0 0.313726 0 0 0 0 0.878431 0 0 0 0.05 0"/>
<feBlend mode="normal" in2="BackgroundImageFix" result="effect1_dropShadow_2_586"/>
<feBlend mode="normal" in="SourceGraphic" in2="effect1_dropShadow_2_586" result="shape"/>
</filter>
<clipPath id="clip0_2_586">
<rect width="40" height="40" fill="white" transform="translate(58.4834 42.4316)"/>
</clipPath>
</defs>
</svg>
