<svg width="157" height="157" viewBox="0 0 157 157" fill="none" xmlns="http://www.w3.org/2000/svg">
<g opacity="0.2" filter="url(#filter0_d_2_602)">
<path fill-rule="evenodd" clip-rule="evenodd" d="M77.3244 17.4316C100.963 17.4316 123.483 33.0339 123.483 56.7985C123.483 83.6201 104.004 107.432 77.3244 107.432C51.2476 107.432 33.4834 83.0138 33.4834 56.7985C33.4834 33.7204 54.3681 17.4316 77.3244 17.4316Z" fill="#F5DFDC"/>
</g>
<g clip-path="url(#clip0_2_602)">
<path fill-rule="evenodd" clip-rule="evenodd" d="M72.8778 60.957C64.9279 60.957 58.4834 67.4015 58.4834 75.3509C58.4834 76.6126 58.6464 77.8356 58.9513 79.0013H86.3746C87.0421 79.1413 87.7336 79.2152 88.4428 79.2152C93.9882 79.2152 98.4834 74.72 98.4834 69.1746C98.4834 63.6292 93.9882 59.134 88.4428 59.134C85.1785 59.134 82.2782 60.6922 80.4444 63.105C78.2455 61.7435 75.6537 60.957 72.8778 60.957ZM84.5178 70.9957L86.7519 70.6555C86.8459 71.0847 87.0377 71.4112 87.3289 71.6324C87.6176 71.856 88.0253 71.9671 88.5456 71.9671C89.1201 71.9671 89.5518 71.8614 89.8435 71.6515C90.0377 71.5027 90.1347 71.3035 90.1347 71.0549C90.1347 70.888 90.0808 70.7475 89.9756 70.6369C89.865 70.5317 89.6169 70.4319 89.2337 70.3428C87.4395 69.9464 86.3041 69.5847 85.8235 69.2583C85.1574 68.8027 84.8256 68.1713 84.8256 67.3648C84.8256 66.6336 85.1143 66.0209 85.6889 65.5246C86.1059 65.1644 86.6892 64.9349 87.439 64.836V63.6918H89.4475V64.8478C90.0656 64.9334 90.5575 65.0988 90.9226 65.344C91.481 65.7214 91.8667 66.2773 92.0771 67.0139L89.9888 67.4025C89.8997 67.0731 89.7275 66.8196 89.4764 66.6444C89.2253 66.4687 88.8666 66.3825 88.4002 66.3825C87.8119 66.3825 87.391 66.4633 87.1346 66.6282C86.9648 66.7442 86.8811 66.895 86.8811 67.0785C86.8811 67.2375 86.954 67.3726 87.1023 67.4832C87.3049 67.6315 87.9979 67.8395 89.1852 68.1092C90.372 68.3788 91.2006 68.7082 91.6699 69.0992C92.1363 69.4932 92.3683 70.0462 92.3683 70.7529C92.3683 71.5218 92.0472 72.1854 91.4027 72.7384C90.9236 73.151 90.2722 73.4104 89.4475 73.5156V74.6574H87.439V73.4853C86.8003 73.3805 86.263 73.1769 85.8264 72.876C85.1599 72.4145 84.7233 71.789 84.5178 70.9957ZM88.4428 61.6989C84.3137 61.6989 80.9671 65.046 80.9671 69.1746C80.9671 73.3037 84.3137 76.6507 88.4428 76.6507C92.5719 76.6507 95.9184 73.3037 95.9184 69.1746C95.9184 65.046 92.5719 61.6989 88.4428 61.6989ZM72.8778 45.6479C69.3071 45.6479 66.4127 48.5423 66.4127 52.113C66.4127 55.6837 69.3071 58.578 72.8778 58.578C76.448 58.578 79.3428 55.6837 79.3428 52.113C79.3428 48.5423 76.448 45.6479 72.8778 45.6479Z" fill="white"/>
</g>
<defs>
<filter id="filter0_d_2_602" x="0.483398" y="0.431641" width="156" height="156" filterUnits="userSpaceOnUse" color-interpolation-filters="sRGB">
<feFlood flood-opacity="0" result="BackgroundImageFix"/>
<feColorMatrix in="SourceAlpha" type="matrix" values="0 0 0 0 0 0 0 0 0 0 0 0 0 0 0 0 0 0 127 0" result="hardAlpha"/>
<feMorphology radius="12" operator="erode" in="SourceAlpha" result="effect1_dropShadow_2_602"/>
<feOffset dy="16"/>
<feGaussianBlur stdDeviation="22.5"/>
<feColorMatrix type="matrix" values="0 0 0 0 0.235294 0 0 0 0 0.313726 0 0 0 0 0.878431 0 0 0 0.05 0"/>
<feBlend mode="normal" in2="BackgroundImageFix" result="effect1_dropShadow_2_602"/>
<feBlend mode="normal" in="SourceGraphic" in2="effect1_dropShadow_2_602" result="shape"/>
</filter>
<clipPath id="clip0_2_602">
<rect width="40" height="40" fill="white" transform="matrix(-1 0 0 1 98.4834 42.4316)"/>
</clipPath>
</defs>
</svg>
