<svg width="157" height="157" viewBox="0 0 157 157" fill="none" xmlns="http://www.w3.org/2000/svg">
<g filter="url(#filter0_d_2_594)">
<path fill-rule="evenodd" clip-rule="evenodd" d="M77.3244 17.4316C100.963 17.4316 123.483 33.0339 123.483 56.7985C123.483 83.6201 104.004 107.432 77.3244 107.432C51.2476 107.432 33.4834 83.0138 33.4834 56.7985C33.4834 33.7204 54.3681 17.4316 77.3244 17.4316Z" fill="#F5DFDC"/>
</g>
<g clip-path="url(#clip0_2_594)">
<path d="M75.6704 77.5919H61.1099V72.8763C61.1099 71.8836 61.5235 70.9322 62.3094 70.3117C66.57 66.7957 71.2029 64.4792 72.113 64.0242C72.2371 63.9828 72.2784 63.8587 72.2784 63.7346V61.2941C71.6579 60.2186 71.2857 59.019 71.1202 57.9435C70.7479 57.9022 70.2515 57.4058 69.7138 55.503C69.052 53.1038 69.6724 52.6074 70.2929 52.6074C70.3343 52.6074 70.3756 52.6074 70.417 52.6074C69.9206 51.2424 69.9206 49.9187 70.2515 48.7191C70.5825 47.2714 71.3684 46.1131 72.2371 45.2031C72.7748 44.624 73.4366 44.0862 74.0985 43.6726C74.6362 43.3003 75.2567 42.9694 75.8772 42.7626C76.4149 42.5971 76.9527 42.473 77.5318 42.473C77.78 42.4316 77.9868 42.4316 78.235 42.4316C79.6828 42.4316 80.7996 42.8453 81.6269 43.3417C83.0747 44.1276 83.6124 45.2031 83.6124 45.2031C83.6124 45.2031 87.2526 45.4513 85.6393 53.0625C86.1357 53.2279 86.4666 53.8898 85.8875 55.9166C85.3498 57.8608 84.812 58.3572 84.4397 58.3572C84.3157 58.3572 84.2329 58.3158 84.1502 58.2745C83.9847 59.1431 83.7365 60.0532 83.3229 60.9218C83.3229 62.1628 83.3229 63.321 83.3229 63.776C83.3229 63.9001 83.4056 63.9828 83.4883 64.0656C83.902 64.2724 85.1016 64.8929 86.7148 65.8029C86.5907 65.927 86.4253 66.0511 86.3012 66.1752C85.1843 67.2507 84.6052 68.6571 84.6052 70.2703C84.6052 72.1731 85.267 73.3727 85.9703 74.1173C85.5152 74.2414 85.143 74.4896 84.812 74.8205C84.357 75.3169 84.1088 75.9373 84.1502 76.5992C84.1502 76.9715 84.2329 77.3024 84.2743 77.6333H80.0551H75.6704V77.5919ZM92.0923 64.3551H90.6859C90.479 64.3551 90.3136 64.5206 90.3136 64.7274V66.382C89.2381 66.5475 88.4108 66.9197 87.749 67.5402C87.0457 68.2434 86.6735 69.1121 86.6735 70.1876C86.6735 71.3872 87.0044 72.2558 87.7076 72.8763C88.4108 73.4968 89.4863 74.0759 90.9754 74.6964C91.5959 74.9446 92.0096 75.2341 92.2577 75.5237C92.5059 75.8132 92.63 76.1855 92.63 76.6819C92.63 77.0956 92.5059 77.4678 92.2577 77.716C92.0096 77.9642 91.6786 78.1297 91.2236 78.1297C90.6859 78.1297 90.2309 77.9642 89.8999 77.5919C89.6104 77.3024 89.4449 76.8887 89.4036 76.3096C89.4036 76.1028 89.1967 75.896 88.9485 75.896L86.6735 75.9373C86.4253 75.9373 86.2184 76.1442 86.2184 76.3923C86.2598 77.5919 86.6735 78.5433 87.3767 79.2052C88.1626 79.9084 89.1554 80.322 90.3136 80.4875V82.0594C90.3136 82.2662 90.479 82.4316 90.6859 82.4316H92.0923C92.2991 82.4316 92.4646 82.2662 92.4646 82.0594V80.4461C93.416 80.2807 94.1605 79.9084 94.781 79.3293C95.4842 78.6674 95.8151 77.7574 95.8151 76.6819C95.8151 75.5237 95.4842 74.6136 94.781 73.9932C94.0778 73.3727 93.0023 72.7522 91.5132 72.1317C90.8927 71.8422 90.4377 71.594 90.2309 71.3044C89.9827 71.0149 89.8999 70.684 89.8999 70.229C89.8999 69.8153 90.024 69.443 90.2309 69.1535C90.4377 68.8639 90.7686 68.7398 91.2236 68.7398C91.6786 68.7398 92.0096 68.9053 92.2991 69.2362C92.5059 69.5257 92.63 69.898 92.6714 70.3944C92.6714 70.6012 92.8782 70.7667 93.1264 70.7667L95.4015 70.7253C95.6497 70.7253 95.8565 70.5185 95.8565 70.2703C95.8151 69.2776 95.4842 68.4503 94.9051 67.747C94.2846 67.0438 93.4987 66.5888 92.5059 66.382V64.6447C92.5059 64.5206 92.2991 64.3551 92.0923 64.3551Z" fill="#FF5A3C"/>
</g>
<defs>
<filter id="filter0_d_2_594" x="0.483398" y="0.431641" width="156" height="156" filterUnits="userSpaceOnUse" color-interpolation-filters="sRGB">
<feFlood flood-opacity="0" result="BackgroundImageFix"/>
<feColorMatrix in="SourceAlpha" type="matrix" values="0 0 0 0 0 0 0 0 0 0 0 0 0 0 0 0 0 0 127 0" result="hardAlpha"/>
<feMorphology radius="12" operator="erode" in="SourceAlpha" result="effect1_dropShadow_2_594"/>
<feOffset dy="16"/>
<feGaussianBlur stdDeviation="22.5"/>
<feColorMatrix type="matrix" values="0 0 0 0 0.235294 0 0 0 0 0.313726 0 0 0 0 0.878431 0 0 0 0.05 0"/>
<feBlend mode="normal" in2="BackgroundImageFix" result="effect1_dropShadow_2_594"/>
<feBlend mode="normal" in="SourceGraphic" in2="effect1_dropShadow_2_594" result="shape"/>
</filter>
<clipPath id="clip0_2_594">
<rect width="40" height="40" fill="white" transform="translate(58.4834 42.4316)"/>
</clipPath>
</defs>
</svg>
