<svg width="51" height="50" viewBox="0 0 51 50" fill="none" xmlns="http://www.w3.org/2000/svg">
<path d="M42.4639 33.5208C40.2365 31.2137 37.5524 29.3761 34.5757 28.1202C31.599 26.8643 28.3922 26.2166 25.1514 26.2166C21.9105 26.2166 18.7037 26.8643 15.727 28.1202C12.7503 29.3761 10.0662 31.2137 7.83887 33.5208C7.35597 34.0263 7.08777 34.6931 7.08887 35.3855V42.545C7.08887 43.2669 7.38153 43.9594 7.90246 44.4699C8.4234 44.9804 9.12994 45.2672 9.86665 45.2672H40.4222C41.1589 45.2672 41.8655 44.9804 42.3864 44.4699C42.9073 43.9594 43.2 43.2669 43.2 42.545V35.3855C43.2048 34.6949 42.9417 34.0284 42.4639 33.5208ZM40.4222 42.545H9.86665V35.3719C11.835 33.3407 14.2045 31.7232 16.831 30.6179C19.4575 29.5127 22.286 28.9427 25.1444 28.9427C28.0028 28.9427 30.8313 29.5127 33.4578 30.6179C36.0843 31.7232 38.4538 33.3407 40.4222 35.3719V42.545Z" fill="#FF5A3C"/>
<path d="M25.1444 23.4894C27.4 23.488 29.5849 22.7182 31.325 21.3116H31.0194C29.8928 21.2931 28.8039 20.9103 27.9222 20.2227C26.7868 20.7018 25.5415 20.8751 24.3148 20.7248C23.0882 20.5746 21.9247 20.1062 20.9446 19.368C19.9644 18.6298 19.2031 17.6486 18.7392 16.5256C18.2753 15.4027 18.1257 14.1788 18.3058 12.9803C18.4859 11.7818 18.9892 10.6521 19.7637 9.70789C20.5382 8.7637 21.5559 8.03922 22.7116 7.60928C23.8673 7.17934 25.1192 7.05952 26.3379 7.26219C27.5567 7.46486 28.6981 7.98267 29.6444 8.76215L31.0333 6.3666C29.8044 5.45438 28.3717 4.84164 26.8535 4.57896C25.3353 4.31627 23.7752 4.41117 22.3018 4.85582C20.8284 5.30047 19.4841 6.08213 18.3797 7.13628C17.2753 8.19043 16.4425 9.48684 15.9501 10.9185C15.4577 12.3502 15.3198 13.8762 15.5478 15.3704C15.7757 16.8646 16.363 18.2843 17.2611 19.5123C18.1593 20.7402 19.3425 21.7413 20.7132 22.4328C22.0839 23.1243 23.6028 23.4865 25.1444 23.4894Z" fill="#FF5A3C"/>
<path d="M37.4361 1.90219L29.4917 15.3227C29.3068 15.5886 29.2007 15.8994 29.1851 16.2208C29.1695 16.5421 29.245 16.8614 29.4032 17.1433C29.5614 17.4252 29.7961 17.6586 30.0814 17.8178C30.3667 17.9769 30.6914 18.0556 31.0195 18.045H46.9222C47.2503 18.0556 47.575 17.9769 47.8603 17.8178C48.1456 17.6586 48.3803 17.4252 48.5385 17.1433C48.6967 16.8614 48.7722 16.5421 48.7566 16.2208C48.7409 15.8994 48.6348 15.5886 48.45 15.3227L40.5056 1.90219C40.3489 1.63957 40.1248 1.42173 39.8555 1.27035C39.5863 1.11896 39.2813 1.03931 38.9708 1.03931C38.6604 1.03931 38.3554 1.11896 38.0862 1.27035C37.8169 1.42173 37.5928 1.63957 37.4361 1.90219Z" fill="#FF5A3C"/>
</svg>
