<svg width="41" height="41" viewBox="0 0 41 41" fill="none" xmlns="http://www.w3.org/2000/svg">
<g clip-path="url(#clip0_2_588)">
<path d="M19.5829 34.501H14.8418H13.3106C9.28295 34.501 6.00509 34.2614 6.00509 30.2817V20.2454H3.6859C2.89468 20.2454 2.18398 19.7708 1.88147 19.0468C1.57979 18.3187 1.74809 17.4837 2.3043 16.9273L17.7229 1.57115C18.4597 0.836589 19.4412 0.431641 20.4829 0.431641C21.5253 0.431641 22.5068 0.836589 23.2436 1.57115C25.7954 4.11264 27.7092 6.01875 28.9851 7.28949C29.0777 7.38171 29.334 7.63697 29.389 7.69173C29.4257 7.72825 29.444 7.47654 29.444 6.93661C29.5392 5.59464 30.6475 4.53532 32.0202 4.53532H32.0356C33.4684 4.53532 34.628 5.6902 34.628 7.1164V12.4786C34.628 12.6212 34.6085 12.7451 34.5866 12.8714L38.6622 16.9273C39.2208 17.4837 39.3867 18.3187 39.0842 19.0468C38.7825 19.7708 38.071 20.2454 37.2806 20.2454H34.628V21.5285C37.4041 23.3765 39.2334 26.5342 39.2334 30.1191C39.2334 35.8146 34.6163 40.4316 28.9209 40.4316C24.7922 40.4316 21.2302 38.0054 19.5829 34.501ZM28.9209 39.4941C34.0986 39.4941 38.2959 35.2968 38.2959 30.1191C38.2959 24.9415 34.0986 20.7441 28.9209 20.7441C23.7432 20.7441 19.5459 24.9415 19.5459 30.1191C19.5459 35.2968 23.7432 39.4941 28.9209 39.4941ZM32.7981 31.8396C32.7981 32.5294 32.5508 33.1257 32.0563 33.6285C31.5617 34.1314 30.8449 34.4534 29.9058 34.5947V35.2305C29.9058 35.6436 29.5709 35.9785 29.1578 35.9785C28.7447 35.9785 28.4097 35.6436 28.4097 35.2305V34.6446C27.7864 34.603 27.1963 34.4971 26.6395 34.3267C26.293 34.2207 25.9835 34.0994 25.7111 33.9628C25.4486 33.8312 25.336 33.5166 25.4554 33.2484C25.4594 33.2394 25.4632 33.2309 25.4668 33.2227L25.8723 32.3122C25.968 32.0972 26.2198 32.0005 26.4349 32.0962C26.4445 32.1005 26.4539 32.1051 26.4632 32.1101C26.4848 32.1217 26.5051 32.1323 26.5239 32.1418C26.7994 32.2812 27.0998 32.4007 27.4249 32.5003C27.9402 32.6582 28.4472 32.7372 28.9458 32.7372C29.8933 32.7372 30.367 32.5003 30.367 32.0265C30.367 31.7772 30.232 31.5923 29.9618 31.4718C29.6917 31.3513 29.2575 31.2245 28.659 31.0915C28.0025 30.9503 27.454 30.7986 27.0135 30.6365C26.573 30.4744 26.1948 30.2147 25.879 29.8573C25.5631 29.5 25.4053 29.0179 25.4053 28.4112C25.4053 27.6964 25.6629 27.0835 26.1782 26.5723C26.6935 26.0612 27.4373 25.7475 28.4097 25.6311V25.0078C28.4097 24.5947 28.7447 24.2598 29.1578 24.2598C29.5709 24.2598 29.9058 24.5947 29.9058 25.0078V25.6062C30.3795 25.6477 30.8346 25.7308 31.2709 25.8555C31.5784 25.9434 31.8622 26.0498 32.1223 26.1748C32.144 26.1853 32.1686 26.1976 32.196 26.2117C32.3331 26.2823 32.3932 26.4463 32.3341 26.5887L31.7681 27.9524C31.7213 28.0653 31.5919 28.1188 31.479 28.0719C31.474 28.0699 31.4691 28.0676 31.4643 28.0652C31.4228 28.0443 31.3875 28.027 31.3583 28.0131C30.6391 27.6718 29.9388 27.5011 29.2575 27.5011C28.7671 27.5011 28.4097 27.5738 28.1853 27.7193C27.9609 27.8647 27.8487 28.0538 27.8487 28.2865C27.8487 28.5192 27.9817 28.6938 28.2477 28.8101C28.5136 28.9265 28.9417 29.047 29.5318 29.1717C30.1967 29.313 30.7473 29.4646 31.1836 29.6267C31.62 29.7888 31.9981 30.0464 32.3181 30.3996C32.6381 30.7529 32.7981 31.2328 32.7981 31.8396Z" fill="#FF5A3C"/>
</g>
<defs>
<clipPath id="clip0_2_588">
<rect width="40" height="40" fill="white" transform="translate(0.483398 0.431641)"/>
</clipPath>
</defs>
</svg>
