<svg width="41" height="41" viewBox="0 0 41 41" fill="none" xmlns="http://www.w3.org/2000/svg">
<g clip-path="url(#clip0_2_596)">
<path d="M17.6704 35.5919H3.10986V30.8763C3.10986 29.8836 3.52351 28.9322 4.30945 28.3117C8.57005 24.7957 13.2029 22.4792 14.113 22.0242C14.2371 21.9828 14.2784 21.8587 14.2784 21.7346V19.2941C13.6579 18.2186 13.2857 17.019 13.1202 15.9435C12.7479 15.9022 12.2515 15.4058 11.7138 13.503C11.052 11.1038 11.6724 10.6074 12.2929 10.6074C12.3343 10.6074 12.3756 10.6074 12.417 10.6074C11.9206 9.2424 11.9206 7.91871 12.2515 6.71913C12.5825 5.27135 13.3684 4.11313 14.2371 3.2031C14.7748 2.62399 15.4366 2.08624 16.0985 1.67259C16.6362 1.30031 17.2567 0.969386 17.8772 0.762561C18.4149 0.597101 18.9527 0.473006 19.5318 0.473006C19.78 0.431641 19.9868 0.431641 20.235 0.431641C21.6828 0.431641 22.7996 0.845291 23.6269 1.34167C25.0747 2.12761 25.6124 3.2031 25.6124 3.2031C25.6124 3.2031 29.2526 3.45129 27.6393 11.0625C28.1357 11.2279 28.4666 11.8898 27.8875 13.9166C27.3498 15.8608 26.812 16.3572 26.4397 16.3572C26.3157 16.3572 26.2329 16.3158 26.1502 16.2745C25.9847 17.1431 25.7365 18.0532 25.3229 18.9218C25.3229 20.1628 25.3229 21.321 25.3229 21.776C25.3229 21.9001 25.4056 21.9828 25.4883 22.0656C25.902 22.2724 27.1016 22.8929 28.7148 23.8029C28.5907 23.927 28.4253 24.0511 28.3012 24.1752C27.1843 25.2507 26.6052 26.6571 26.6052 28.2703C26.6052 30.1731 27.267 31.3727 27.9703 32.1173C27.5152 32.2414 27.143 32.4896 26.812 32.8205C26.357 33.3169 26.1088 33.9373 26.1502 34.5992C26.1502 34.9715 26.2329 35.3024 26.2743 35.6333H22.0551H17.6704V35.5919ZM34.0923 22.3551H32.6859C32.479 22.3551 32.3136 22.5206 32.3136 22.7274V24.382C31.2381 24.5475 30.4108 24.9197 29.749 25.5402C29.0457 26.2434 28.6735 27.1121 28.6735 28.1876C28.6735 29.3872 29.0044 30.2558 29.7076 30.8763C30.4108 31.4968 31.4863 32.0759 32.9754 32.6964C33.5959 32.9446 34.0096 33.2341 34.2577 33.5237C34.5059 33.8132 34.63 34.1855 34.63 34.6819C34.63 35.0956 34.5059 35.4678 34.2577 35.716C34.0096 35.9642 33.6786 36.1297 33.2236 36.1297C32.6859 36.1297 32.2309 35.9642 31.8999 35.5919C31.6104 35.3024 31.4449 34.8887 31.4036 34.3096C31.4036 34.1028 31.1967 33.896 30.9485 33.896L28.6735 33.9373C28.4253 33.9373 28.2184 34.1442 28.2184 34.3923C28.2598 35.5919 28.6735 36.5433 29.3767 37.2052C30.1626 37.9084 31.1554 38.322 32.3136 38.4875V40.0594C32.3136 40.2662 32.479 40.4316 32.6859 40.4316H34.0923C34.2991 40.4316 34.4646 40.2662 34.4646 40.0594V38.4461C35.416 38.2807 36.1605 37.9084 36.781 37.3293C37.4842 36.6674 37.8151 35.7574 37.8151 34.6819C37.8151 33.5237 37.4842 32.6136 36.781 31.9932C36.0778 31.3727 35.0023 30.7522 33.5132 30.1317C32.8927 29.8422 32.4377 29.594 32.2309 29.3044C31.9827 29.0149 31.8999 28.684 31.8999 28.229C31.8999 27.8153 32.024 27.443 32.2309 27.1535C32.4377 26.8639 32.7686 26.7398 33.2236 26.7398C33.6786 26.7398 34.0096 26.9053 34.2991 27.2362C34.5059 27.5257 34.63 27.898 34.6714 28.3944C34.6714 28.6012 34.8782 28.7667 35.1264 28.7667L37.4015 28.7253C37.6497 28.7253 37.8565 28.5185 37.8565 28.2703C37.8151 27.2776 37.4842 26.4503 36.9051 25.747C36.2846 25.0438 35.4987 24.5888 34.5059 24.382V22.6447C34.5059 22.5206 34.2991 22.3551 34.0923 22.3551Z" fill="#FF5A3C"/>
</g>
<defs>
<clipPath id="clip0_2_596">
<rect width="40" height="40" fill="white" transform="translate(0.483398 0.431641)"/>
</clipPath>
</defs>
</svg>
