<svg width="41" height="41" viewBox="0 0 41 41" fill="none" xmlns="http://www.w3.org/2000/svg">
<g clip-path="url(#clip0_2_604)">
<path fill-rule="evenodd" clip-rule="evenodd" d="M14.8778 18.957C6.92788 18.957 0.483398 25.4015 0.483398 33.3509C0.483398 34.6126 0.64637 35.8356 0.951267 37.0013H28.3746C29.0421 37.1413 29.7336 37.2152 30.4428 37.2152C35.9882 37.2152 40.4834 32.72 40.4834 27.1746C40.4834 21.6292 35.9882 17.134 30.4428 17.134C27.1785 17.134 24.2782 18.6922 22.4444 21.105C20.2455 19.7435 17.6537 18.957 14.8778 18.957ZM26.5178 28.9957L28.7519 28.6555C28.8459 29.0847 29.0377 29.4112 29.3289 29.6324C29.6176 29.856 30.0253 29.9671 30.5456 29.9671C31.1201 29.9671 31.5518 29.8614 31.8435 29.6515C32.0377 29.5027 32.1347 29.3035 32.1347 29.0549C32.1347 28.888 32.0808 28.7475 31.9756 28.6369C31.865 28.5317 31.6169 28.4319 31.2337 28.3428C29.4395 27.9464 28.3041 27.5847 27.8235 27.2583C27.1574 26.8027 26.8256 26.1713 26.8256 25.3648C26.8256 24.6336 27.1143 24.0209 27.6889 23.5246C28.1059 23.1644 28.6892 22.9349 29.439 22.836V21.6918H31.4475V22.8478C32.0656 22.9334 32.5575 23.0988 32.9226 23.344C33.481 23.7214 33.8667 24.2773 34.0771 25.0139L31.9888 25.4025C31.8997 25.0731 31.7275 24.8196 31.4764 24.6444C31.2253 24.4687 30.8666 24.3825 30.4002 24.3825C29.8119 24.3825 29.391 24.4633 29.1346 24.6282C28.9648 24.7442 28.8811 24.895 28.8811 25.0785C28.8811 25.2375 28.954 25.3726 29.1023 25.4832C29.3049 25.6315 29.9979 25.8395 31.1852 26.1092C32.372 26.3788 33.2006 26.7082 33.6699 27.0992C34.1363 27.4932 34.3683 28.0462 34.3683 28.7529C34.3683 29.5218 34.0472 30.1854 33.4027 30.7384C32.9236 31.151 32.2722 31.4104 31.4475 31.5156V32.6574H29.439V31.4853C28.8003 31.3805 28.263 31.1769 27.8264 30.876C27.1599 30.4145 26.7233 29.789 26.5178 28.9957ZM30.4428 19.6989C26.3137 19.6989 22.9671 23.046 22.9671 27.1746C22.9671 31.3037 26.3137 34.6507 30.4428 34.6507C34.5719 34.6507 37.9184 31.3037 37.9184 27.1746C37.9184 23.046 34.5719 19.6989 30.4428 19.6989ZM14.8778 3.64795C11.3071 3.64795 8.41273 6.54229 8.41273 10.113C8.41273 13.6837 11.3071 16.578 14.8778 16.578C18.448 16.578 21.3428 13.6837 21.3428 10.113C21.3428 6.54229 18.448 3.64795 14.8778 3.64795Z" fill="white"/>
</g>
<defs>
<clipPath id="clip0_2_604">
<rect width="40" height="40" fill="white" transform="matrix(-1 0 0 1 40.4834 0.431641)"/>
</clipPath>
</defs>
</svg>
