<svg width="60" height="61" viewBox="0 0 60 61" fill="none" xmlns="http://www.w3.org/2000/svg">
<circle cx="30" cy="30.2349" r="29.5" stroke="#FF5A3C"/>
<g opacity="0.5">
<path opacity="0.4" d="M33.7975 31.4252L37.4967 31.7523C38.3269 31.7523 39 31.0727 39 30.2344C39 29.3962 38.3269 28.7165 37.4967 28.7165L33.7975 29.0437C33.1463 29.0437 32.6183 29.5768 32.6183 30.2344C32.6183 30.8931 33.1463 31.4252 33.7975 31.4252Z" fill="#FF5A3C"/>
<path d="M21.3753 31.365C21.4332 31.4234 21.6492 31.6701 21.8521 31.875C23.0357 33.1583 26.1262 35.2567 27.7429 35.8989C27.9884 36.0013 28.6091 36.2194 28.9418 36.2349C29.2592 36.2349 29.5625 36.1611 29.8516 36.0157C30.2127 35.8119 30.5007 35.4902 30.66 35.1113C30.7614 34.8491 30.9207 34.0616 30.9207 34.0472C31.0789 33.1869 31.165 31.788 31.165 30.2415C31.165 28.7698 31.0789 27.4282 30.949 26.5536C30.9349 26.5381 30.7756 25.5611 30.6021 25.2262C30.2847 24.6138 29.664 24.2349 28.9996 24.2349H28.9418C28.5087 24.2492 27.5989 24.6292 27.5989 24.6424C26.0684 25.2846 23.051 27.2817 21.8379 28.609C21.8379 28.609 21.4953 28.9505 21.347 29.1631C21.1157 29.4693 21.0001 29.8482 21.0001 30.2272C21.0001 30.6501 21.1299 31.0434 21.3753 31.365Z" fill="#FF5A3C"/>
</g>
</svg>
