<svg width="24" height="25" viewBox="0 0 24 25" fill="none" xmlns="http://www.w3.org/2000/svg">
<path d="M15.9087 12.3027L23.9997 17.4177V6.97168L15.9087 12.3027Z" fill="#8C8C8C"/>
<path d="M0 6.97168V17.4177L8.091 12.3027L0 6.97168Z" fill="#8C8C8C"/>
<path d="M22.4999 3.92969H1.49992C0.751422 3.92969 0.157422 4.48769 0.0449219 5.20619L11.9999 13.0827L23.9549 5.20619C23.8424 4.48769 23.2484 3.92969 22.4999 3.92969Z" fill="#8C8C8C"/>
<path d="M14.5349 13.2088L12.4124 14.6068C12.2864 14.6893 12.1439 14.7298 11.9999 14.7298C11.8559 14.7298 11.7134 14.6893 11.5874 14.6068L9.46485 13.2073L0.0478516 19.1638C0.163352 19.8763 0.754352 20.4298 1.49985 20.4298H22.4999C23.2454 20.4298 23.8364 19.8763 23.9519 19.1638L14.5349 13.2088Z" fill="#8C8C8C"/>
</svg>
