<svg width="14" height="11" viewBox="0 0 14 11" fill="none" xmlns="http://www.w3.org/2000/svg">
<path d="M13.6569 1.66476C13.8236 1.83143 13.9069 2.03381 13.9069 2.2719C13.9069 2.51 13.8236 2.71238 13.6569 2.87905L7.19266 9.34333L5.97838 10.5576C5.81171 10.7243 5.60933 10.8076 5.37123 10.8076C5.13314 10.8076 4.93076 10.7243 4.76409 10.5576L3.5498 9.34333L0.317662 6.11119C0.150995 5.94452 0.0676619 5.74214 0.0676619 5.50405C0.0676619 5.26595 0.150995 5.06357 0.317662 4.8969L1.53195 3.68262C1.69861 3.51595 1.901 3.43262 2.13909 3.43262C2.37719 3.43262 2.57957 3.51595 2.74623 3.68262L5.37123 6.31655L11.2284 0.450474C11.395 0.283807 11.5974 0.200474 11.8355 0.200474C12.0736 0.200474 12.276 0.283807 12.4427 0.450474L13.6569 1.66476Z" fill="#FF5A3C"/>
</svg>
