<svg width="52" height="41" viewBox="0 0 52 41" fill="none" xmlns="http://www.w3.org/2000/svg">
<path d="M13.2831 13.8555C13.8004 13.2694 13.7804 12.3753 13.22 11.8149C12.6374 11.2322 11.6925 11.2322 11.1097 11.8149L10.3774 12.5473V6.54988C10.3774 5.09626 11.56 3.91363 13.0136 3.91363C14.4672 3.91363 15.6499 5.09626 15.6499 6.54988C15.6499 7.37398 16.318 8.04209 17.1421 8.04209C17.9662 8.04209 18.6343 7.37398 18.6343 6.54988C18.6343 3.45065 16.1128 0.929199 13.0136 0.929199C9.91438 0.929199 7.39293 3.45065 7.39293 6.54988V12.5473L6.66055 11.8149C6.07789 11.2322 5.13302 11.2322 4.55026 11.8149C3.98989 12.3753 3.96999 13.2693 4.48719 13.8555H13.2831Z" fill="#FF5A3C"/>
<path d="M49.9631 16.8403H2.01223C1.18813 16.8403 0.52002 17.5084 0.52002 18.3325C0.52002 19.1566 1.18813 19.8247 2.01223 19.8247H2.57361C3.34657 22.7508 4.12093 25.6766 4.89699 28.602C5.83857 32.1511 8.29963 34.8786 11.493 36.1849L10.1136 37.8854C9.59438 38.5255 9.69247 39.4652 10.3324 39.9844C10.6089 40.2086 10.9413 40.3177 11.2715 40.3177C11.7058 40.3177 12.1364 40.129 12.4313 39.7655L14.6944 36.9756C15.0774 37.0133 15.4653 37.0349 15.8585 37.0349H36.1207C36.5177 37.0349 36.9093 37.0129 37.2959 36.9745L39.56 39.7656C39.8549 40.1291 40.2855 40.3178 40.7197 40.3178C41.05 40.3178 41.3824 40.2087 41.6588 39.9845C42.2989 39.4653 42.3969 38.5256 41.8777 37.8855L40.4953 36.1814C43.6853 34.8733 46.1431 32.1463 47.0832 28.5987C47.9215 25.4343 48.6877 22.5517 49.4152 19.8248H49.9629C50.787 19.8248 51.4551 19.1567 51.4551 18.3326C51.4551 17.5085 50.7872 16.8403 49.9631 16.8403Z" fill="#FF5A3C"/>
</svg>
