<svg width="45" height="48" viewBox="0 0 45 48" fill="none" xmlns="http://www.w3.org/2000/svg">
<path d="M21.4533 40.6852H15.8994H14.1056C9.3874 40.6852 5.54753 40.4045 5.54753 35.7424V23.9854H2.83072C1.90384 23.9854 1.07129 23.4295 0.716921 22.5813C0.363508 21.7284 0.560663 20.7502 1.21224 20.0984L19.2744 2.10941C20.1375 1.24891 21.2873 0.774536 22.5076 0.774536C23.7288 0.774536 24.8785 1.24891 25.7416 2.10941C28.7309 5.08665 30.9729 7.31957 32.4676 8.80818C32.576 8.91621 32.8763 9.21524 32.9407 9.27939C32.9837 9.32217 33.0051 9.0273 33.0051 8.3948C33.1166 6.82274 34.415 5.5818 36.023 5.5818H36.041C37.7195 5.5818 39.0779 6.93469 39.0779 8.60541V14.887C39.0779 15.054 39.0551 15.1992 39.0294 15.3472L43.8038 20.0984C44.4582 20.7502 44.6525 21.7284 44.2982 22.5813C43.9448 23.4295 43.1112 23.9854 42.1853 23.9854H39.0779V25.4885C42.3299 27.6533 44.4729 31.3524 44.4729 35.552C44.4729 42.224 39.0642 47.6326 32.3923 47.6326C27.5558 47.6326 23.383 44.7904 21.4533 40.6852ZM32.3923 46.5344C38.4577 46.5344 43.3747 41.6174 43.3747 35.552C43.3747 29.4866 38.4577 24.5697 32.3923 24.5697C26.3269 24.5697 21.4099 29.4866 21.4099 35.552C21.4099 41.6174 26.3269 46.5344 32.3923 46.5344ZM36.9342 37.5674C36.9342 38.3755 36.6446 39.0741 36.0653 39.6631C35.486 40.2521 34.6462 40.6294 33.546 40.7949V41.5398C33.546 42.0237 33.1538 42.416 32.6698 42.416C32.1859 42.416 31.7935 42.0237 31.7935 41.5398V40.8534C31.0633 40.8047 30.3721 40.6805 29.7197 40.481C29.3138 40.3568 28.9513 40.2147 28.6321 40.0547C28.3247 39.9006 28.1928 39.532 28.3326 39.2178C28.3373 39.2073 28.3418 39.1973 28.346 39.1877L28.821 38.1211C28.9331 37.8692 29.2282 37.7559 29.48 37.868C29.4913 37.8731 29.5024 37.8785 29.5133 37.8843C29.5386 37.898 29.5623 37.9103 29.5843 37.9215C29.9071 38.0847 30.259 38.2247 30.6398 38.3414C31.2435 38.5264 31.8374 38.6189 32.4215 38.6189C33.5315 38.6189 34.0864 38.3414 34.0864 37.7865C34.0864 37.4944 33.9282 37.2777 33.6117 37.1366C33.2953 36.9954 32.7866 36.8469 32.0856 36.6912C31.3164 36.5256 30.6739 36.348 30.1579 36.1581C29.6418 35.9682 29.1988 35.664 28.8288 35.2453C28.4589 34.8267 28.2739 34.262 28.2739 33.5512C28.2739 32.7139 28.5757 31.9959 29.1794 31.3971C29.783 30.7984 30.6544 30.4308 31.7935 30.2945V29.5643C31.7935 29.0804 32.1859 28.688 32.6698 28.688C33.1538 28.688 33.546 29.0804 33.546 29.5643V30.2653C34.101 30.314 34.6341 30.4113 35.1452 30.5574C35.5055 30.6603 35.8379 30.785 36.1426 30.9315C36.168 30.9437 36.1968 30.9581 36.229 30.9747C36.3896 31.0574 36.4599 31.2494 36.3907 31.4163L35.7277 33.0138C35.6728 33.146 35.5213 33.2087 35.389 33.1538C35.3832 33.1514 35.3774 33.1488 35.3718 33.1459C35.3232 33.1215 35.2819 33.1011 35.2477 33.0849C34.4051 32.6851 33.5848 32.4851 32.7866 32.4851C32.2122 32.4851 31.7935 32.5703 31.5306 32.7407C31.2678 32.9111 31.1363 33.1326 31.1363 33.4052C31.1363 33.6778 31.2921 33.8823 31.6037 34.0186C31.9152 34.1549 32.4167 34.2961 33.1079 34.4421C33.8868 34.6076 34.5318 34.7853 35.043 34.9752C35.5541 35.165 35.9971 35.4668 36.372 35.8806C36.7468 36.2944 36.9342 36.8567 36.9342 37.5674Z" fill="#FF5A3C"/>
</svg>
