<svg width="38" height="39" viewBox="0 0 38 39" fill="none" xmlns="http://www.w3.org/2000/svg">
<path d="M15.9703 0.203979H21.8494V7.29187H15.9703V0.203979Z" fill="#FF5A3C"/>
<path d="M15.9703 10.0196H21.8494V13.6558H15.9703V10.0196Z" fill="#FF5A3C"/>
<path d="M1.7927 38.204C1.19742 38.204 0.714844 37.7214 0.714844 37.1261V10.0196H13.2414V15.0198C13.2414 15.7732 13.8521 16.3839 14.6054 16.3839H23.2125C23.9659 16.3839 24.5766 15.7732 24.5766 15.0198V10.0196H37.2601V37.1261C37.2601 37.7214 36.7775 38.204 36.1822 38.204H1.7927Z" fill="#FF5A3C"/>
<path d="M24.5753 7.29187H37.2587V2.09598C37.2587 1.05101 36.5548 0.203979 35.6865 0.203979H24.5753V7.29187Z" fill="#FF5A3C"/>
<path d="M2.02144 0.203979H13.2414V7.29187H0.714844V1.77635C0.714844 0.90796 1.29985 0.203979 2.02144 0.203979Z" fill="#FF5A3C"/>
</svg>
