<svg width="36" height="36" viewBox="0 0 36 36" fill="none" xmlns="http://www.w3.org/2000/svg">
<path d="M1.87777 1.2604L8.85237 8.235L5.97021 11.1172C5.56923 11.5181 5.56923 12.1682 5.97021 12.5692C6.37112 12.9701 7.02126 12.9702 7.42224 12.5692L10.3045 9.68696L13.2333 12.6157L10.3511 15.4979C9.95011 15.8989 9.95011 16.549 10.3511 16.9499C10.752 17.3509 11.4021 17.3509 11.8031 16.9499L14.6854 14.0677L17.6141 16.9965L14.732 19.8786C14.331 20.2796 14.331 20.9297 14.732 21.3307C15.1329 21.7316 15.783 21.7317 16.184 21.3307L19.0662 18.4485L21.995 21.3772L19.1129 24.2594C18.7119 24.6604 18.7119 25.3104 19.1129 25.7114C19.5138 26.1123 20.1639 26.1124 20.5649 25.7114L23.4471 22.8292L26.3759 25.758L23.4937 28.6401C23.0928 29.0411 23.0928 29.6912 23.4937 30.0922C23.8946 30.4931 24.5448 30.4932 24.9458 30.0922L27.828 27.2099L34.8023 34.1849C35.4473 34.8299 34.9897 35.9378 34.0763 35.9378H1.15179C0.584747 35.9378 0.125038 35.478 0.125038 34.911V1.98645C0.124969 1.07435 1.23188 0.614571 1.87777 1.2604ZM6.76464 28.2713C6.76464 28.8384 7.22435 29.2981 7.79139 29.2981H17.1006C18.0122 29.2981 18.4729 28.1916 17.8266 27.5453L8.51738 18.236C7.87237 17.591 6.76464 18.0487 6.76464 18.9621V28.2713Z" fill="#FF5A3C"/>
</svg>
