<svg width="57" height="47" viewBox="0 0 57 47" fill="none" xmlns="http://www.w3.org/2000/svg">
<path fill-rule="evenodd" clip-rule="evenodd" d="M20.8584 21.1923C9.85846 21.1923 0.941452 30.1093 0.941452 41.1086C0.941452 42.8543 1.16695 44.5466 1.58883 46.1596H39.5335C40.4572 46.3533 41.414 46.4555 42.3952 46.4555C50.0683 46.4555 56.2881 40.2357 56.2881 32.5627C56.2881 24.8896 50.0683 18.6698 42.3952 18.6698C37.8785 18.6698 33.8656 20.8259 31.3282 24.1644C28.2857 22.2805 24.6994 21.1923 20.8584 21.1923ZM36.9643 35.0824L40.0556 34.6118C40.1856 35.2057 40.4511 35.6573 40.854 35.9634C41.2535 36.2729 41.8176 36.4266 42.5374 36.4266C43.3324 36.4266 43.9297 36.2803 44.3333 35.9898C44.6021 35.784 44.7362 35.5084 44.7362 35.1644C44.7362 34.9334 44.6617 34.7391 44.5161 34.5861C44.3631 34.4405 44.0198 34.3023 43.4895 34.1791C41.007 33.6306 39.436 33.1301 38.771 32.6785C37.8494 32.048 37.3902 31.1745 37.3902 30.0585C37.3902 29.0468 37.7898 28.199 38.5848 27.5123C39.1617 27.0139 39.9689 26.6963 41.0063 26.5595V24.9763H43.7855V26.5758C44.6407 26.6943 45.3213 26.9232 45.8265 27.2624C46.5991 27.7845 47.1327 28.5538 47.4239 29.5729L44.5344 30.1106C44.4112 29.6549 44.1728 29.3041 43.8254 29.0617C43.478 28.8186 42.9817 28.6994 42.3363 28.6994C41.5223 28.6994 40.94 28.8111 40.5851 29.0393C40.3502 29.1998 40.2344 29.4084 40.2344 29.6623C40.2344 29.8824 40.3353 30.0693 40.5404 30.2224C40.8208 30.4275 41.7797 30.7153 43.4225 31.0885C45.0646 31.4616 46.2111 31.9173 46.8605 32.4584C47.5058 33.0035 47.8268 33.7687 47.8268 34.7465C47.8268 35.8104 47.3826 36.7286 46.4908 37.4938C45.8278 38.0647 44.9265 38.4236 43.7855 38.5692V40.149H41.0063V38.5272C40.1226 38.3823 39.3791 38.1006 38.7751 37.6841C37.8528 37.0455 37.2487 36.1801 36.9643 35.0824ZM42.3952 22.2189C36.6819 22.2189 32.0514 26.85 32.0514 32.5627C32.0514 38.276 36.6819 42.9071 42.3952 42.9071C48.1085 42.9071 52.739 38.276 52.739 32.5627C52.739 26.85 48.1085 22.2189 42.3952 22.2189ZM20.8584 0.00964355C15.9178 0.00964355 11.913 4.01444 11.913 8.95509C11.913 13.8957 15.9178 17.9005 20.8584 17.9005C25.7984 17.9005 29.8039 13.8957 29.8039 8.95509C29.8039 4.01444 25.7984 0.00964355 20.8584 0.00964355Z" fill="#FF5A3C"/>
</svg>
