<svg width="51" height="51" viewBox="0 0 51 51" fill="none" xmlns="http://www.w3.org/2000/svg">
<g clip-path="url(#clip0_2_670)">
<path d="M13.0205 12.4916C13.4794 5.83691 19.0229 0.581055 25.7941 0.581055C32.5653 0.581055 38.1089 5.83691 38.5678 12.4916C38.5881 12.7869 38.5678 25.0873 25.7941 25.0873C13.0204 25.0872 13.0001 12.7869 13.0205 12.4916Z" fill="#FFBA57"/>
<path d="M13.1661 34.3375L18.2148 39.7048C18.458 39.9634 18.4899 40.3652 18.267 40.6642C18.1237 40.8563 17.8903 40.96 17.6507 40.96H16.21L16.21 49.8361C16.21 50.2474 15.8765 50.5809 15.4652 50.5809H9.76082C9.34949 50.5809 9.01599 50.2474 9.01599 49.8361L9.01602 40.96H7.55371C7.19873 40.96 6.88438 40.708 6.81924 40.341C6.77735 40.1049 6.86172 39.8638 7.02598 39.6892L12.0705 34.3263C12.2775 34.1062 12.6046 34.0263 12.9043 34.1502C13.0043 34.1916 13.0919 34.2586 13.1661 34.3375Z" fill="#FF5A3C"/>
<path d="M26.3366 29.2027L31.3816 34.566C31.5457 34.7406 31.6299 34.9817 31.5879 35.2177C31.5226 35.5846 31.2083 35.8364 30.8534 35.8364H29.3911L29.3912 49.8365C29.3912 50.2478 29.0578 50.5813 28.6464 50.5813H22.942C22.5307 50.5813 22.1972 50.2478 22.1972 49.8365L22.1972 35.8364H20.7349C20.3799 35.8364 20.0655 35.5844 20.0004 35.2174C19.9585 34.9813 20.0429 34.7402 20.2071 34.5656L25.246 29.2087C25.3124 29.1381 25.39 29.0776 25.4782 29.0375C25.7842 28.8984 26.1239 28.9766 26.3366 29.2027Z" fill="#FF5A3C"/>
<path d="M39.5174 24.4615L44.5623 29.8248C44.7264 29.9993 44.8107 30.2405 44.7685 30.4765C44.7032 30.8434 44.3889 31.0952 44.0341 31.0952H42.5718L42.572 49.8363C42.572 50.2477 42.2385 50.5812 41.8271 50.5812H36.1228C35.7113 50.5812 35.3779 50.2477 35.3779 49.8363L35.3779 31.0952H33.9156C33.5607 31.0952 33.2464 30.8434 33.1811 30.4765C33.1391 30.2405 33.2234 29.9994 33.3876 29.8248L38.4325 24.4615C38.5732 24.3119 38.7696 24.2271 38.975 24.2271C39.1803 24.2271 39.3767 24.3119 39.5174 24.4615Z" fill="#FF5A3C"/>
<path d="M16.7835 12.4918C17.2324 7.91094 21.0953 4.33154 25.794 4.33154C30.4819 4.33154 34.3376 7.89424 34.8012 12.4599C34.8321 12.7643 34.8014 21.5607 25.794 21.5607C16.7833 21.5606 16.7547 12.7858 16.7835 12.4918Z" fill="#FFE27A"/>
<path d="M25.5103 16.8778C24.3383 16.8064 24.0163 16.1011 23.9565 15.9354C23.8712 15.6164 23.581 15.3813 23.2351 15.3813C22.8221 15.3813 22.4873 15.716 22.4873 16.129C22.4873 16.189 22.4951 16.2471 22.5085 16.3029L22.5082 16.303C22.5089 16.3057 22.5104 16.3108 22.5122 16.3173C22.5214 16.3525 22.5322 16.3871 22.5462 16.4201C22.6842 16.8009 23.2373 17.9821 24.867 18.2977V19.2906C24.867 19.7027 25.2011 20.0368 25.6133 20.0368C26.0255 20.0368 26.3596 19.7027 26.3596 19.2906V18.3201C27.0738 18.1958 27.5537 17.8836 27.8537 17.6013C28.4119 17.076 28.7452 16.2819 28.7452 15.477C28.7452 14.7209 28.4486 12.9294 25.7016 12.6263C25.1574 12.5662 24.7691 12.3931 24.5477 12.1115C24.3522 11.863 24.331 11.5884 24.331 11.4818C24.331 11.3506 24.367 10.1995 25.6133 10.1995C26.431 10.1995 26.7611 10.7195 26.8233 10.8326C26.9339 11.1072 27.2024 11.3014 27.5166 11.3014C27.9296 11.3014 28.2644 10.9666 28.2644 10.5536C28.2644 10.4309 28.2342 10.3153 28.1818 10.2131L28.1821 10.2129C27.9718 9.75566 27.3778 9.04043 26.3596 8.79414V7.79268C26.3596 7.38057 26.0255 7.04639 25.6133 7.04639C25.2012 7.04639 24.867 7.38047 24.867 7.79268V8.79111C23.394 9.14082 22.8385 10.5151 22.8385 11.4817C22.8385 12.5565 23.5454 13.8896 25.5378 14.1096C27.2526 14.2988 27.2526 15.1855 27.2526 15.477C27.2526 15.7865 27.1419 16.2216 26.8309 16.5142C26.5369 16.7909 26.0929 16.9134 25.5103 16.8778Z" fill="#FF5A3C"/>
</g>
<defs>
<clipPath id="clip0_2_670">
<rect width="50" height="50" fill="white" transform="translate(0.793945 0.581055)"/>
</clipPath>
</defs>
</svg>
